<!DOCTYPE svg PUBLIC "-//W3C//DTD SVG 1.1//EN" "http://www.w3.org/Graphics/SVG/1.1/DTD/svg11.dtd">
<!-- Uploaded to: SVG Repo, www.svgrepo.com, Transformed by: SVG Repo Mixer Tools -->
<svg width="64px" height="64px" viewBox="0 0 1024 1024" xmlns="http://www.w3.org/2000/svg" fill="#000000">
<g id="SVGRepo_bgCarrier" stroke-width="0"/>
<g id="SVGRepo_tracerCarrier" stroke-linecap="round" stroke-linejoin="round"/>
<g id="SVGRepo_iconCarrier"> <circle cx="512" cy="512" r="512" style="fill:#000000"/> <path d="m677.52 597.2-17.33-108.86-63.7 108h-12.1c-7.26-12.5-10.08-30.64-10.08-41.93 0-18.54 1.21-36.69 1.21-60.47 0-31.45-9.27-48-33.87-54v-.81c52-7.26 75.79-41.93 75.79-90.31 0-68.94-46-83.86-106-83.86H349.76l-68.53 324.17h85.87l25-118.12h57.25c30.64 0 43.14 14.92 43.14 43.54 0 21.77-2.42 39.11-2.42 55.63 0 6 1.21 20.56 5.64 26.2l62.08 65.71L504.17 777l114.5-68.13 85.47 65.71-15.73-108.45 98.37-68.94zM475.14 410.54H406.6l16.53-78.21h63.7c22.58 0 46.36 6 46.36 33.46 0 35.07-27.01 44.75-58.05 44.75z" style="fill:#ffffff"/> </g>
</svg>